<?xml version="1.0" encoding="UTF-8" standalone="no"?><svg xmlns="http://www.w3.org/2000/svg" xmlns:xlink="http://www.w3.org/1999/xlink" contentScriptType="application/ecmascript" contentStyleType="text/css" height="543px" preserveAspectRatio="none" style="width:492px;height:543px;" version="1.1" viewBox="0 0 492 543" width="492px" zoomAndPan="magnify"><defs><filter height="300%" id="f2bwpvn" width="300%" x="-1" y="-1"><feGaussianBlur result="blurOut" stdDeviation="2.0"/><feColorMatrix in="blurOut" result="blurOut2" type="matrix" values="0 0 0 0 0 0 0 0 0 0 0 0 0 0 0 0 0 0 .4 0"/><feOffset dx="4.0" dy="4.0" in="blurOut2" result="blurOut3"/><feBlend in="SourceGraphic" in2="blurOut3" mode="normal"/></filter></defs><g><!--cluster Some Group--><polygon fill="#FFFFFF" filter="url(#f2bwpvn)" points="22,24,126,24,133,46.2969,458,46.2969,458,112,22,112,22,24" style="stroke: #000000; stroke-width: 2.0;"/><line style="stroke: #000000; stroke-width: 2.0;" x1="22" x2="133" y1="46.2969" y2="46.2969"/><text fill="#000000" font-family="sans-serif" font-size="14" font-weight="bold" lengthAdjust="spacingAndGlyphs" textLength="98" x="26" y="38.9951">Some Group</text><!--cluster Other Groups--><polygon fill="#FFFFFF" filter="url(#f2bwpvn)" points="50,146,60,136,301,136,301,219,291,229,50,229,50,146" style="stroke: #000000; stroke-width: 2.0;"/><line style="stroke: #000000; stroke-width: 2.0;" x1="291" x2="300" y1="146" y2="137"/><line style="stroke: #000000; stroke-width: 2.0;" x1="50" x2="291" y1="146" y2="146"/><line style="stroke: #000000; stroke-width: 2.0;" x1="291" x2="291" y1="146" y2="229"/><text fill="#000000" font-family="sans-serif" font-size="14" font-weight="bold" lengthAdjust="spacingAndGlyphs" textLength="108" x="117.5" y="161.9951">Other Groups</text><!--cluster ##235--><path d="M328,168 C328,165 330,163 333,163 C336,163 338,165 338,168 C338,165 340,163 343,163 C346,163 348,165 348,168 C348,165 350,163 353,163 C356,163 358,165 358,168 C358,165 360,163 363,163 C366,163 368,165 368,168 C368,165 370,163 373,163 C376,163 378,165 378,168 C378,165 380,163 383,163 C386,163 388,165 388,168 C388,165 390,163 393,163 C396,163 398,165 398,168 C398,165 400,163 403,163 C406,163 408,165 408,168 C408,165 410,163 413,163 C416,163 418,165 418,168 C418,165 420,163 423,163 C426,163 428,165 428,168 C428,165 430,163 433,163 C436,163 438,165 438,168 C438,165 440,163 443,163 C446,163 448,165 448,168 C451,168 453,170 453,173 C453,176 451,178 448,178 C451,178 453,180 453,183 C453,186 451,188 448,188 C451,188 453,190 453,193 C453,196 451,198 448,198 C451,198 453,200 453,203 C453,206 451,208 448,208 C451,208 453,210 453,213 C453,216 451,218 448,218 C448,221 445,223 443,223 C440,223 438,221 438,218 C438,221 435,223 433,223 C430,223 428,221 428,218 C428,221 425,223 423,223 C420,223 418,221 418,218 C418,221 415,223 413,223 C410,223 408,221 408,218 C408,221 405,223 403,223 C400,223 398,221 398,218 C398,221 395,223 393,223 C390,223 388,221 388,218 C388,221 385,223 383,223 C380,223 378,221 378,218 C378,221 375,223 373,223 C370,223 368,221 368,218 C368,221 365,223 363,223 C360,223 358,221 358,218 C358,221 355,223 353,223 C350,223 348,221 348,218 C348,221 345,223 343,223 C340,223 338,221 338,218 C338,221 335,223 333,223 C330,223 328,221 328,218 C325,218 323,216 323,213 C323,210 325,208 328,208 C325,208 323,206 323,203 C323,200 325,198 328,198 C325,198 323,196 323,193 C323,190 325,188 328,188 C325,188 323,186 323,183 C323,180 325,178 328,178 C325,178 323,176 323,173 C323,170 325,168 328,168 " fill="#FFFFFF" filter="url(#f2bwpvn)" style="stroke: #000000; stroke-width: 2.0;"/><!--cluster MySql--><path d="M289,263 C289,253 387,253 387,253 C387,253 485,253 485,263 L485,526 C485,536 387,536 387,536 C387,536 289,536 289,526 L289,263 " fill="#FFFFFF" filter="url(#f2bwpvn)" style="stroke: #000000; stroke-width: 2.0;"/><path d="M289,263 C289,273 387,273 387,273 C387,273 485,273 485,263 " fill="none" style="stroke: #000000; stroke-width: 2.0;"/><text fill="#000000" font-family="sans-serif" font-size="14" font-weight="bold" lengthAdjust="spacingAndGlyphs" textLength="46" x="364" y="286.9951">MySql</text><!--cluster This is my folder--><polygon fill="#FFFFFF" filter="url(#f2bwpvn)" points="313,312,450,312,457,334.2969,461,334.2969,461,400,313,400,313,312" style="stroke: #000000; stroke-width: 2.0;"/><line style="stroke: #000000; stroke-width: 2.0;" x1="313" x2="457" y1="334.2969" y2="334.2969"/><text fill="#000000" font-family="sans-serif" font-size="14" font-weight="bold" lengthAdjust="spacingAndGlyphs" textLength="131" x="317" y="326.9951">This is my folder</text><!--cluster Foo--><rect fill="#FFFFFF" filter="url(#f2bwpvn)" height="88" style="stroke: #000000; stroke-width: 2.0;" width="108" x="333" y="424"/><path d="M372,425 L372,433.2969 L362,443.2969 L333,443.2969 " fill="none" style="stroke: #000000; stroke-width: 2.0;"/><text fill="#000000" font-family="sans-serif" font-size="14" font-weight="bold" lengthAdjust="spacingAndGlyphs" textLength="29" x="336" y="437.9951">Foo</text><!--entity HTTP--><ellipse cx="227.25" cy="70" fill="#FEFECE" filter="url(#f2bwpvn)" rx="8" ry="8" style="stroke: #A80036; stroke-width: 2.0;"/><text fill="#000000" font-family="sans-serif" font-size="14" lengthAdjust="spacingAndGlyphs" textLength="37" x="208.75" y="91.9951">HTTP</text><!--entity First Component--><rect fill="#FEFECE" filter="url(#f2bwpvn)" height="36.2969" style="stroke: #A80036; stroke-width: 1.5;" width="135" x="38.75" y="60"/><rect fill="#FEFECE" height="5" style="stroke: #A80036; stroke-width: 1.5;" width="10" x="33.75" y="65"/><rect fill="#FEFECE" height="5" style="stroke: #A80036; stroke-width: 1.5;" width="10" x="33.75" y="86.2969"/><text fill="#000000" font-family="sans-serif" font-size="14" lengthAdjust="spacingAndGlyphs" textLength="115" x="48.75" y="82.9951">First Component</text><!--entity Another Component--><rect fill="#FEFECE" filter="url(#f2bwpvn)" height="36.2969" style="stroke: #A80036; stroke-width: 1.5;" width="161" x="280.75" y="60"/><rect fill="#FEFECE" height="5" style="stroke: #A80036; stroke-width: 1.5;" width="10" x="275.75" y="65"/><rect fill="#FEFECE" height="5" style="stroke: #A80036; stroke-width: 1.5;" width="10" x="275.75" y="86.2969"/><text fill="#000000" font-family="sans-serif" font-size="14" lengthAdjust="spacingAndGlyphs" textLength="141" x="290.75" y="82.9951">Another Component</text><!--entity FTP--><ellipse cx="79" cy="187" fill="#FEFECE" filter="url(#f2bwpvn)" rx="8" ry="8" style="stroke: #A80036; stroke-width: 2.0;"/><text fill="#000000" font-family="sans-serif" font-size="14" lengthAdjust="spacingAndGlyphs" textLength="26" x="66" y="208.9951">FTP</text><!--entity Second Component--><rect fill="#FEFECE" filter="url(#f2bwpvn)" height="36.2969" style="stroke: #A80036; stroke-width: 1.5;" width="159" x="126.75" y="177"/><rect fill="#FEFECE" height="5" style="stroke: #A80036; stroke-width: 1.5;" width="10" x="121.75" y="182"/><rect fill="#FEFECE" height="5" style="stroke: #A80036; stroke-width: 1.5;" width="10" x="121.75" y="203.2969"/><text fill="#000000" font-family="sans-serif" font-size="14" lengthAdjust="spacingAndGlyphs" textLength="139" x="136.75" y="199.9951">Second Component</text><!--entity Example 1--><rect fill="#FEFECE" filter="url(#f2bwpvn)" height="36.2969" style="stroke: #A80036; stroke-width: 1.5;" width="91" x="341.75" y="177"/><rect fill="#FEFECE" height="5" style="stroke: #A80036; stroke-width: 1.5;" width="10" x="336.75" y="182"/><rect fill="#FEFECE" height="5" style="stroke: #A80036; stroke-width: 1.5;" width="10" x="336.75" y="203.2969"/><text fill="#000000" font-family="sans-serif" font-size="14" lengthAdjust="spacingAndGlyphs" textLength="71" x="351.75" y="199.9951">Example 1</text><!--entity Folder 3--><rect fill="#FEFECE" filter="url(#f2bwpvn)" height="36.2969" style="stroke: #A80036; stroke-width: 1.5;" width="76" x="349" y="348"/><rect fill="#FEFECE" height="5" style="stroke: #A80036; stroke-width: 1.5;" width="10" x="344" y="353"/><rect fill="#FEFECE" height="5" style="stroke: #A80036; stroke-width: 1.5;" width="10" x="344" y="374.2969"/><text fill="#000000" font-family="sans-serif" font-size="14" lengthAdjust="spacingAndGlyphs" textLength="56" x="359" y="370.9951">Folder 3</text><!--entity Frame 4--><rect fill="#FEFECE" filter="url(#f2bwpvn)" height="36.2969" style="stroke: #A80036; stroke-width: 1.5;" width="76" x="349" y="460"/><rect fill="#FEFECE" height="5" style="stroke: #A80036; stroke-width: 1.5;" width="10" x="344" y="465"/><rect fill="#FEFECE" height="5" style="stroke: #A80036; stroke-width: 1.5;" width="10" x="344" y="486.2969"/><text fill="#000000" font-family="sans-serif" font-size="14" lengthAdjust="spacingAndGlyphs" textLength="56" x="359" y="482.9951">Frame 4</text><path d="M208.64,78 C196.957,78 185.273,78 173.59,78 " fill="none" style="stroke: #A80036; stroke-width: 1.0;"/><path d="M92.3945,195 C103.7847,195 115.175,195 126.565,195 " fill="none" style="stroke: #A80036; stroke-width: 1.0;"/><path d="M101.8993,96.466 C97.0919,116.942 89.1276,150.864 83.9724,172.821 " fill="none" style="stroke: #A80036; stroke-width: 1.0;"/><polygon fill="#A80036" points="82.7898,177.858,88.741,170.0105,83.9326,172.9904,80.9528,168.182,82.7898,177.858" style="stroke: #A80036; stroke-width: 1.0;"/><path d="M364.949,96.466 C369.499,116.593 376.987,149.712 381.956,171.688 " fill="none" style="stroke: #A80036; stroke-width: 1.0;"/><polygon fill="#A80036" points="383.099,176.746,385.0175,167.0858,381.9973,171.8689,377.2142,168.8486,383.099,176.746" style="stroke: #A80036; stroke-width: 1.0;"/><path d="M387,213.135 C387,243.881 387,308.394 387,342.6 " fill="none" style="stroke: #A80036; stroke-width: 1.0;"/><polygon fill="#A80036" points="387,347.82,391,338.82,387,342.82,383,338.82,387,347.82" style="stroke: #A80036; stroke-width: 1.0;"/><path d="M387,384.188 C387,403.238 387,434.02 387,454.8619 " fill="none" style="stroke: #A80036; stroke-width: 1.0;"/><polygon fill="#A80036" points="387,459.9332,391,450.9332,387,454.9332,383,450.9332,387,459.9332" style="stroke: #A80036; stroke-width: 1.0;"/></g></svg>