<?xml version="1.0" encoding="UTF-8" standalone="no"?><svg xmlns="http://www.w3.org/2000/svg" xmlns:xlink="http://www.w3.org/1999/xlink" contentScriptType="application/ecmascript" contentStyleType="text/css" height="169px" preserveAspectRatio="none" style="width:109px;height:169px;" version="1.1" viewBox="0 0 109 169" width="109px" zoomAndPan="magnify"><defs><filter height="300%" id="f5q7qmd" width="300%" x="-1" y="-1"><feGaussianBlur result="blurOut" stdDeviation="2.0"/><feColorMatrix in="blurOut" result="blurOut2" type="matrix" values="0 0 0 0 0 0 0 0 0 0 0 0 0 0 0 0 0 0 .4 0"/><feOffset dx="4.0" dy="4.0" in="blurOut2" result="blurOut3"/><feBlend in="SourceGraphic" in2="blurOut3" mode="normal"/></filter></defs><g><ellipse cx="53" cy="18" fill="#000000" filter="url(#f5q7qmd)" rx="10" ry="10" style="stroke: none; stroke-width: 1.0;"/><rect fill="#FEFECE" filter="url(#f5q7qmd)" height="33.9688" rx="12.5" ry="12.5" style="stroke: #A80036; stroke-width: 1.5;" width="94" x="6" y="68"/><text fill="#000000" font-family="sans-serif" font-size="12" lengthAdjust="spacingAndGlyphs" textLength="74" x="16" y="89.1387">First Activity</text><ellipse cx="53" cy="152" fill="none" filter="url(#f5q7qmd)" rx="10" ry="10" style="stroke: #000000; stroke-width: 1.0;"/><ellipse cx="53.5" cy="152.5" fill="#000000" rx="6" ry="6" style="stroke: none; stroke-width: 1.0;"/><path d="M53,28.038 C53,36.932 53,50.844 53,62.5722 " fill="none" style="stroke: #A80036; stroke-width: 1.0;"/><polygon fill="#A80036" points="53,67.7811,57,58.7811,53,62.7811,49,58.7811,53,67.7811" style="stroke: #A80036; stroke-width: 1.0;"/><path d="M53,102.0674 C53,112.5986 53,126.2536 53,136.4618 " fill="none" style="stroke: #A80036; stroke-width: 1.0;"/><polygon fill="#A80036" points="53,141.7367,57,132.7367,53,136.7367,49,132.7367,53,141.7367" style="stroke: #A80036; stroke-width: 1.0;"/></g></svg>