<?xml version="1.0" encoding="UTF-8" standalone="no"?><svg xmlns="http://www.w3.org/2000/svg" xmlns:xlink="http://www.w3.org/1999/xlink" contentScriptType="application/ecmascript" contentStyleType="text/css" height="239px" preserveAspectRatio="none" style="width:266px;height:239px;" version="1.1" viewBox="0 0 266 239" width="266px" zoomAndPan="magnify"><defs><filter height="300%" id="f009xw1" width="300%" x="-1" y="-1"><feGaussianBlur result="blurOut" stdDeviation="2.0"/><feColorMatrix in="blurOut" result="blurOut2" type="matrix" values="0 0 0 0 0 0 0 0 0 0 0 0 0 0 0 0 0 0 .4 0"/><feOffset dx="4.0" dy="4.0" in="blurOut2" result="blurOut3"/><feBlend in="SourceGraphic" in2="blurOut3" mode="normal"/></filter></defs><g><ellipse cx="81.25" cy="18" fill="#000000" filter="url(#f009xw1)" rx="10" ry="10" style="stroke: none; stroke-width: 1.0;"/><rect fill="#FEFECE" filter="url(#f009xw1)" height="64.2344" rx="12.5" ry="12.5" style="stroke: #A80036; stroke-width: 1.5;" width="151" x="6" y="88"/><line style="stroke: #A80036; stroke-width: 1.5;" x1="6" x2="157" y1="114.2969" y2="114.2969"/><text fill="#000000" font-family="sans-serif" font-size="14" lengthAdjust="spacingAndGlyphs" textLength="45" x="59" y="105.9951">State1</text><text fill="#000000" font-family="sans-serif" font-size="12" lengthAdjust="spacingAndGlyphs" textLength="89" x="11" y="130.4355">this is a string</text><text fill="#000000" font-family="sans-serif" font-size="12" lengthAdjust="spacingAndGlyphs" textLength="131" x="11" y="144.4043">this is another string</text><ellipse cx="152.25" cy="222" fill="none" filter="url(#f009xw1)" rx="10" ry="10" style="stroke: #000000; stroke-width: 1.0;"/><ellipse cx="152.75" cy="222.5" fill="#000000" rx="6" ry="6" style="stroke: none; stroke-width: 1.0;"/><rect fill="#FEFECE" filter="url(#f009xw1)" height="50" rx="12.5" ry="12.5" style="stroke: #A80036; stroke-width: 1.5;" width="65" x="192" y="95"/><line style="stroke: #A80036; stroke-width: 1.5;" x1="192" x2="257" y1="121.2969" y2="121.2969"/><text fill="#000000" font-family="sans-serif" font-size="14" lengthAdjust="spacingAndGlyphs" textLength="45" x="202" y="112.9951">State2</text><path d="M81.25,28.229 C81.25,40.515 81.25,62.965 81.25,82.463 " fill="none" style="stroke: #A80036; stroke-width: 1.0;"/><polygon fill="#A80036" points="81.25,87.873,85.25,78.873,81.25,82.873,77.25,78.873,81.25,87.873" style="stroke: #A80036; stroke-width: 1.0;"/><path d="M103.3257,152.0925 C116.931,171.2547 133.621,194.762 143.571,208.7765 " fill="none" style="stroke: #A80036; stroke-width: 1.0;"/><polygon fill="#A80036" points="146.673,213.1453,144.723,203.4914,143.7778,209.0688,138.2005,208.1237,146.673,213.1453" style="stroke: #A80036; stroke-width: 1.0;"/><path d="M156.66,120 C166.628,120 176.595,120 186.563,120 " fill="none" style="stroke: #A80036; stroke-width: 1.0;"/><polygon fill="#A80036" points="191.775,120,182.775,116,186.775,120,182.775,124,191.775,120" style="stroke: #A80036; stroke-width: 1.0;"/><path d="M206.821,145.2072 C192.213,165.4962 171.987,193.5877 160.711,209.2485 " fill="none" style="stroke: #A80036; stroke-width: 1.0;"/><polygon fill="#A80036" points="157.78,213.3192,166.2852,208.3532,160.7018,209.2617,159.7933,203.6783,157.78,213.3192" style="stroke: #A80036; stroke-width: 1.0;"/></g></svg>