<?xml version="1.0" encoding="UTF-8" standalone="no"?><svg xmlns="http://www.w3.org/2000/svg" xmlns:xlink="http://www.w3.org/1999/xlink" contentScriptType="application/ecmascript" contentStyleType="text/css" height="162px" preserveAspectRatio="none" style="width:435px;height:162px;" version="1.1" viewBox="0 0 435 162" width="435px" zoomAndPan="magnify"><defs><filter height="300%" id="fuysbzj" width="300%" x="-1" y="-1"><feGaussianBlur result="blurOut" stdDeviation="2.0"/><feColorMatrix in="blurOut" result="blurOut2" type="matrix" values="0 0 0 0 0 0 0 0 0 0 0 0 0 0 0 0 0 0 .4 0"/><feOffset dx="4.0" dy="4.0" in="blurOut2" result="blurOut3"/><feBlend in="SourceGraphic" in2="blurOut3" mode="normal"/></filter></defs><g><rect fill="#FEFECE" filter="url(#fuysbzj)" height="33.9688" style="stroke: #A80036; stroke-width: 1.5;" width="70" x="6" y="8"/><text fill="#000000" font-family="sans-serif" font-size="12" lengthAdjust="spacingAndGlyphs" textLength="56" x="13" y="21.1387">Object01</text><line style="stroke: #A80036; stroke-width: 1.5;" x1="7" x2="75" y1="25.9688" y2="25.9688"/><rect fill="#FEFECE" filter="url(#fuysbzj)" height="33.9688" style="stroke: #A80036; stroke-width: 1.5;" width="70" x="6" y="120"/><text fill="#000000" font-family="sans-serif" font-size="12" lengthAdjust="spacingAndGlyphs" textLength="56" x="13" y="133.1387">Object02</text><line style="stroke: #A80036; stroke-width: 1.5;" x1="7" x2="75" y1="137.9688" y2="137.9688"/><rect fill="#FEFECE" filter="url(#fuysbzj)" height="33.9688" style="stroke: #A80036; stroke-width: 1.5;" width="70" x="111" y="8"/><text fill="#000000" font-family="sans-serif" font-size="12" lengthAdjust="spacingAndGlyphs" textLength="56" x="118" y="21.1387">Object03</text><line style="stroke: #A80036; stroke-width: 1.5;" x1="112" x2="180" y1="25.9688" y2="25.9688"/><rect fill="#FEFECE" filter="url(#fuysbzj)" height="33.9688" style="stroke: #A80036; stroke-width: 1.5;" width="70" x="111" y="120"/><text fill="#000000" font-family="sans-serif" font-size="12" lengthAdjust="spacingAndGlyphs" textLength="56" x="118" y="133.1387">Object04</text><line style="stroke: #A80036; stroke-width: 1.5;" x1="112" x2="180" y1="137.9688" y2="137.9688"/><rect fill="#FEFECE" filter="url(#fuysbzj)" height="33.9688" style="stroke: #A80036; stroke-width: 1.5;" width="70" x="216" y="8"/><text fill="#000000" font-family="sans-serif" font-size="12" lengthAdjust="spacingAndGlyphs" textLength="56" x="223" y="21.1387">Object05</text><line style="stroke: #A80036; stroke-width: 1.5;" x1="217" x2="285" y1="25.9688" y2="25.9688"/><rect fill="#FEFECE" filter="url(#fuysbzj)" height="33.9688" style="stroke: #A80036; stroke-width: 1.5;" width="70" x="216" y="120"/><text fill="#000000" font-family="sans-serif" font-size="12" lengthAdjust="spacingAndGlyphs" textLength="56" x="223" y="133.1387">Object06</text><line style="stroke: #A80036; stroke-width: 1.5;" x1="217" x2="285" y1="137.9688" y2="137.9688"/><rect fill="#FEFECE" filter="url(#fuysbzj)" height="33.9688" style="stroke: #A80036; stroke-width: 1.5;" width="70" x="321" y="8"/><text fill="#000000" font-family="sans-serif" font-size="12" lengthAdjust="spacingAndGlyphs" textLength="56" x="328" y="21.1387">Object07</text><line style="stroke: #A80036; stroke-width: 1.5;" x1="322" x2="390" y1="25.9688" y2="25.9688"/><rect fill="#FEFECE" filter="url(#fuysbzj)" height="33.9688" style="stroke: #A80036; stroke-width: 1.5;" width="70" x="321" y="120"/><text fill="#000000" font-family="sans-serif" font-size="12" lengthAdjust="spacingAndGlyphs" textLength="56" x="328" y="133.1387">Object08</text><line style="stroke: #A80036; stroke-width: 1.5;" x1="322" x2="390" y1="137.9688" y2="137.9688"/><path d="M41,62.3659 C41,81.756 41,104.6501 41,119.7025 " fill="none" style="stroke: #A80036; stroke-width: 1.0;"/><polygon fill="none" points="34.0001,62.2309,41,42.231,48.0001,62.2308,34.0001,62.2309" style="stroke: #A80036; stroke-width: 1.0;"/><path d="M146,55.3183 C146,75.9422 146,102.7787 146,119.7025 " fill="none" style="stroke: #A80036; stroke-width: 1.0;"/><polygon fill="#A80036" points="146,42.231,142,48.231,146,54.231,150,48.231,146,42.231" style="stroke: #A80036; stroke-width: 1.0;"/><path d="M251,55.3183 C251,75.9422 251,102.7787 251,119.7025 " fill="none" style="stroke: #A80036; stroke-width: 1.0;"/><polygon fill="#FFFFFF" points="251,42.231,247,48.231,251,54.231,255,48.231,251,42.231" style="stroke: #A80036; stroke-width: 1.0;"/><text fill="#000000" font-family="sans-serif" font-size="13" lengthAdjust="spacingAndGlyphs" textLength="8" x="240.6563" y="108.8584">4</text><path d="M356,42.231 C356,63.0282 356,98.8732 356,119.7025 " fill="none" style="stroke: #A80036; stroke-width: 1.0; stroke-dasharray: 7.0,7.0;"/><text fill="#000000" font-family="sans-serif" font-size="13" lengthAdjust="spacingAndGlyphs" textLength="77" x="357" y="85.0669">some labels</text></g></svg>