<?xml version="1.0" encoding="UTF-8" standalone="no"?><svg xmlns="http://www.w3.org/2000/svg" xmlns:xlink="http://www.w3.org/1999/xlink" contentScriptType="application/ecmascript" contentStyleType="text/css" height="360px" preserveAspectRatio="none" style="width:304px;height:360px;" version="1.1" viewBox="0 0 304 360" width="304px" zoomAndPan="magnify"><defs><filter height="300%" id="f90hkij" width="300%" x="-1" y="-1"><feGaussianBlur result="blurOut" stdDeviation="2.0"/><feColorMatrix in="blurOut" result="blurOut2" type="matrix" values="0 0 0 0 0 0 0 0 0 0 0 0 0 0 0 0 0 0 .4 0"/><feOffset dx="4.0" dy="4.0" in="blurOut2" result="blurOut3"/><feBlend in="SourceGraphic" in2="blurOut3" mode="normal"/></filter></defs><g><!--entity User--><ellipse cx="22" cy="164.5" fill="#FEFECE" filter="url(#f90hkij)" rx="8" ry="8" style="stroke: #A80036; stroke-width: 2.0;"/><path d="M22,172.5 L22,199.5 M9,180.5 L35,180.5 M22,199.5 L9,214.5 M22,199.5 L35,214.5 " fill="#FEFECE" filter="url(#f90hkij)" style="stroke: #A80036; stroke-width: 2.0;"/><text fill="#000000" font-family="sans-serif" font-size="14" lengthAdjust="spacingAndGlyphs" textLength="32" x="6" y="234.4951">User</text><ellipse cx="133.3774" cy="196.0236" fill="#FEFECE" filter="url(#f90hkij)" rx="25.6274" ry="14.5236" style="stroke: #A80036; stroke-width: 1.5;"/><text fill="#000000" font-family="sans-serif" font-size="14" lengthAdjust="spacingAndGlyphs" textLength="32" x="117.3774" y="200.6721">Start</text><ellipse cx="150.3124" cy="335.0125" fill="#FEFECE" filter="url(#f90hkij)" rx="80.5624" ry="18.5125" style="stroke: #A80036; stroke-width: 1.5;"/><text fill="#000000" font-family="sans-serif" font-size="14" lengthAdjust="spacingAndGlyphs" textLength="132" x="84.3124" y="339.6609">Use the application</text><!--entity Main Admin--><ellipse cx="229.25" cy="18.5" fill="#FEFECE" filter="url(#f90hkij)" rx="8" ry="8" style="stroke: #A80036; stroke-width: 2.0;"/><path d="M229.25,26.5 L229.25,53.5 M216.25,34.5 L242.25,34.5 M229.25,53.5 L216.25,68.5 M229.25,53.5 L242.25,68.5 " fill="#FEFECE" filter="url(#f90hkij)" style="stroke: #A80036; stroke-width: 2.0;"/><text fill="#000000" font-family="sans-serif" font-size="14" lengthAdjust="spacingAndGlyphs" textLength="79" x="189.75" y="88.4951">Main Admin</text><path d="M38.043,196 C59.448,196 80.853,196 102.2581,196 " fill="none" style="stroke: #A80036; stroke-width: 1.0;"/><polygon fill="#A80036" points="107.406,196,98.406,192,102.406,196,98.406,200,107.406,196" style="stroke: #A80036; stroke-width: 1.0;"/><path d="M38.2113,214.351 C61.6785,239.468 105.062,285.9023 130.328,312.9453 " fill="none" style="stroke: #A80036; stroke-width: 1.0;"/><polygon fill="#A80036" points="133.92,316.7897,130.6996,307.4822,130.5069,313.1358,124.8534,312.9431,133.92,316.7897" style="stroke: #A80036; stroke-width: 1.0;"/><text fill="#000000" font-family="sans-serif" font-size="13" lengthAdjust="spacingAndGlyphs" textLength="81" x="106" y="281.0669">A small label</text><path d="M231.016,91.887 C231.76,140.615 227.677,223.312 197,286 C191.978,296.2631 183.916,305.7007 175.877,313.4416 " fill="none" style="stroke: #A80036; stroke-width: 1.0;"/><polygon fill="#A80036" points="171.946,317.1015,181.2587,313.8964,175.6055,313.6944,175.8074,308.0412,171.946,317.1015" style="stroke: #A80036; stroke-width: 1.0;"/><text fill="#000000" font-family="sans-serif" font-size="13" lengthAdjust="spacingAndGlyphs" textLength="39" x="246.5" y="185.0669">This is</text><text fill="#000000" font-family="sans-serif" font-size="13" lengthAdjust="spacingAndGlyphs" textLength="74" x="229" y="200.1997">yet another</text><text fill="#000000" font-family="sans-serif" font-size="13" lengthAdjust="spacingAndGlyphs" textLength="30" x="251" y="215.3325">label</text></g></svg>