<?xml version="1.0" encoding="UTF-8" standalone="no"?><svg xmlns="http://www.w3.org/2000/svg" xmlns:xlink="http://www.w3.org/1999/xlink" contentScriptType="application/ecmascript" contentStyleType="text/css" height="173px" preserveAspectRatio="none" style="width:560px;height:173px;" version="1.1" viewBox="0 0 560 173" width="560px" zoomAndPan="magnify"><defs><filter height="300%" id="fvtcfi0" width="300%" x="-1" y="-1"><feGaussianBlur result="blurOut" stdDeviation="2.0"/><feColorMatrix in="blurOut" result="blurOut2" type="matrix" values="0 0 0 0 0 0 0 0 0 0 0 0 0 0 0 0 0 0 .4 0"/><feOffset dx="4.0" dy="4.0" in="blurOut2" result="blurOut3"/><feBlend in="SourceGraphic" in2="blurOut3" mode="normal"/></filter></defs><g><!--class Class01--><rect fill="#FEFECE" filter="url(#fvtcfi0)" height="48" style="stroke: #A80036; stroke-width: 1.5;" width="81" x="6" y="8"/><ellipse cx="21" cy="24" fill="#ADD1B2" rx="11" ry="11" style="stroke: #A80036; stroke-width: 1.0;"/><path d="M23.9688,29.6406 Q23.3906,29.9375 22.75,30.0859 Q22.1094,30.2344 21.4063,30.2344 Q18.9063,30.2344 17.5859,28.5859 Q16.2656,26.9375 16.2656,23.8125 Q16.2656,20.6875 17.5859,19.0313 Q18.9063,17.375 21.4063,17.375 Q22.1094,17.375 22.7578,17.5313 Q23.4063,17.6875 23.9688,17.9844 L23.9688,20.7031 Q23.3438,20.125 22.75,19.8516 Q22.1563,19.5781 21.5313,19.5781 Q20.1875,19.5781 19.5,20.6484 Q18.8125,21.7188 18.8125,23.8125 Q18.8125,25.9063 19.5,26.9766 Q20.1875,28.0469 21.5313,28.0469 Q22.1563,28.0469 22.75,27.7734 Q23.3438,27.5 23.9688,26.9219 L23.9688,29.6406 Z "/><text fill="#000000" font-family="sans-serif" font-size="12" lengthAdjust="spacingAndGlyphs" textLength="49" x="35" y="28.1543">Class01</text><line style="stroke: #A80036; stroke-width: 1.5;" x1="7" x2="86" y1="40" y2="40"/><line style="stroke: #A80036; stroke-width: 1.5;" x1="7" x2="86" y1="48" y2="48"/><!--class Class02--><rect fill="#FEFECE" filter="url(#fvtcfi0)" height="48" style="stroke: #A80036; stroke-width: 1.5;" width="81" x="6" y="116"/><ellipse cx="21" cy="132" fill="#ADD1B2" rx="11" ry="11" style="stroke: #A80036; stroke-width: 1.0;"/><path d="M23.9688,137.6406 Q23.3906,137.9375 22.75,138.0859 Q22.1094,138.2344 21.4063,138.2344 Q18.9063,138.2344 17.5859,136.5859 Q16.2656,134.9375 16.2656,131.8125 Q16.2656,128.6875 17.5859,127.0313 Q18.9063,125.375 21.4063,125.375 Q22.1094,125.375 22.7578,125.5313 Q23.4063,125.6875 23.9688,125.9844 L23.9688,128.7031 Q23.3438,128.125 22.75,127.8516 Q22.1563,127.5781 21.5313,127.5781 Q20.1875,127.5781 19.5,128.6484 Q18.8125,129.7188 18.8125,131.8125 Q18.8125,133.9063 19.5,134.9766 Q20.1875,136.0469 21.5313,136.0469 Q22.1563,136.0469 22.75,135.7734 Q23.3438,135.5 23.9688,134.9219 L23.9688,137.6406 Z "/><text fill="#000000" font-family="sans-serif" font-size="12" lengthAdjust="spacingAndGlyphs" textLength="49" x="35" y="136.1543">Class02</text><line style="stroke: #A80036; stroke-width: 1.5;" x1="7" x2="86" y1="148" y2="148"/><line style="stroke: #A80036; stroke-width: 1.5;" x1="7" x2="86" y1="156" y2="156"/><!--class Class03--><rect fill="#FEFECE" filter="url(#fvtcfi0)" height="48" style="stroke: #A80036; stroke-width: 1.5;" width="81" x="122" y="8"/><ellipse cx="137" cy="24" fill="#ADD1B2" rx="11" ry="11" style="stroke: #A80036; stroke-width: 1.0;"/><path d="M139.9688,29.6406 Q139.3906,29.9375 138.75,30.0859 Q138.1094,30.2344 137.4063,30.2344 Q134.9063,30.2344 133.5859,28.5859 Q132.2656,26.9375 132.2656,23.8125 Q132.2656,20.6875 133.5859,19.0313 Q134.9063,17.375 137.4063,17.375 Q138.1094,17.375 138.7578,17.5313 Q139.4063,17.6875 139.9688,17.9844 L139.9688,20.7031 Q139.3438,20.125 138.75,19.8516 Q138.1563,19.5781 137.5313,19.5781 Q136.1875,19.5781 135.5,20.6484 Q134.8125,21.7188 134.8125,23.8125 Q134.8125,25.9063 135.5,26.9766 Q136.1875,28.0469 137.5313,28.0469 Q138.1563,28.0469 138.75,27.7734 Q139.3438,27.5 139.9688,26.9219 L139.9688,29.6406 Z "/><text fill="#000000" font-family="sans-serif" font-size="12" lengthAdjust="spacingAndGlyphs" textLength="49" x="151" y="28.1543">Class03</text><line style="stroke: #A80036; stroke-width: 1.5;" x1="123" x2="202" y1="40" y2="40"/><line style="stroke: #A80036; stroke-width: 1.5;" x1="123" x2="202" y1="48" y2="48"/><!--class Class04--><rect fill="#FEFECE" filter="url(#fvtcfi0)" height="48" style="stroke: #A80036; stroke-width: 1.5;" width="81" x="122" y="116"/><ellipse cx="137" cy="132" fill="#ADD1B2" rx="11" ry="11" style="stroke: #A80036; stroke-width: 1.0;"/><path d="M139.9688,137.6406 Q139.3906,137.9375 138.75,138.0859 Q138.1094,138.2344 137.4063,138.2344 Q134.9063,138.2344 133.5859,136.5859 Q132.2656,134.9375 132.2656,131.8125 Q132.2656,128.6875 133.5859,127.0313 Q134.9063,125.375 137.4063,125.375 Q138.1094,125.375 138.7578,125.5313 Q139.4063,125.6875 139.9688,125.9844 L139.9688,128.7031 Q139.3438,128.125 138.75,127.8516 Q138.1563,127.5781 137.5313,127.5781 Q136.1875,127.5781 135.5,128.6484 Q134.8125,129.7188 134.8125,131.8125 Q134.8125,133.9063 135.5,134.9766 Q136.1875,136.0469 137.5313,136.0469 Q138.1563,136.0469 138.75,135.7734 Q139.3438,135.5 139.9688,134.9219 L139.9688,137.6406 Z "/><text fill="#000000" font-family="sans-serif" font-size="12" lengthAdjust="spacingAndGlyphs" textLength="49" x="151" y="136.1543">Class04</text><line style="stroke: #A80036; stroke-width: 1.5;" x1="123" x2="202" y1="148" y2="148"/><line style="stroke: #A80036; stroke-width: 1.5;" x1="123" x2="202" y1="156" y2="156"/><!--class Class05--><rect fill="#FEFECE" filter="url(#fvtcfi0)" height="48" style="stroke: #A80036; stroke-width: 1.5;" width="81" x="238" y="8"/><ellipse cx="253" cy="24" fill="#ADD1B2" rx="11" ry="11" style="stroke: #A80036; stroke-width: 1.0;"/><path d="M255.9688,29.6406 Q255.3906,29.9375 254.75,30.0859 Q254.1094,30.2344 253.4063,30.2344 Q250.9063,30.2344 249.5859,28.5859 Q248.2656,26.9375 248.2656,23.8125 Q248.2656,20.6875 249.5859,19.0313 Q250.9063,17.375 253.4063,17.375 Q254.1094,17.375 254.7578,17.5313 Q255.4063,17.6875 255.9688,17.9844 L255.9688,20.7031 Q255.3438,20.125 254.75,19.8516 Q254.1563,19.5781 253.5313,19.5781 Q252.1875,19.5781 251.5,20.6484 Q250.8125,21.7188 250.8125,23.8125 Q250.8125,25.9063 251.5,26.9766 Q252.1875,28.0469 253.5313,28.0469 Q254.1563,28.0469 254.75,27.7734 Q255.3438,27.5 255.9688,26.9219 L255.9688,29.6406 Z "/><text fill="#000000" font-family="sans-serif" font-size="12" lengthAdjust="spacingAndGlyphs" textLength="49" x="267" y="28.1543">Class05</text><line style="stroke: #A80036; stroke-width: 1.5;" x1="239" x2="318" y1="40" y2="40"/><line style="stroke: #A80036; stroke-width: 1.5;" x1="239" x2="318" y1="48" y2="48"/><!--class Class06--><rect fill="#FEFECE" filter="url(#fvtcfi0)" height="48" style="stroke: #A80036; stroke-width: 1.5;" width="81" x="238" y="116"/><ellipse cx="253" cy="132" fill="#ADD1B2" rx="11" ry="11" style="stroke: #A80036; stroke-width: 1.0;"/><path d="M255.9688,137.6406 Q255.3906,137.9375 254.75,138.0859 Q254.1094,138.2344 253.4063,138.2344 Q250.9063,138.2344 249.5859,136.5859 Q248.2656,134.9375 248.2656,131.8125 Q248.2656,128.6875 249.5859,127.0313 Q250.9063,125.375 253.4063,125.375 Q254.1094,125.375 254.7578,125.5313 Q255.4063,125.6875 255.9688,125.9844 L255.9688,128.7031 Q255.3438,128.125 254.75,127.8516 Q254.1563,127.5781 253.5313,127.5781 Q252.1875,127.5781 251.5,128.6484 Q250.8125,129.7188 250.8125,131.8125 Q250.8125,133.9063 251.5,134.9766 Q252.1875,136.0469 253.5313,136.0469 Q254.1563,136.0469 254.75,135.7734 Q255.3438,135.5 255.9688,134.9219 L255.9688,137.6406 Z "/><text fill="#000000" font-family="sans-serif" font-size="12" lengthAdjust="spacingAndGlyphs" textLength="49" x="267" y="136.1543">Class06</text><line style="stroke: #A80036; stroke-width: 1.5;" x1="239" x2="318" y1="148" y2="148"/><line style="stroke: #A80036; stroke-width: 1.5;" x1="239" x2="318" y1="156" y2="156"/><!--class Class07--><rect fill="#FEFECE" filter="url(#fvtcfi0)" height="48" style="stroke: #A80036; stroke-width: 1.5;" width="81" x="354" y="8"/><ellipse cx="369" cy="24" fill="#ADD1B2" rx="11" ry="11" style="stroke: #A80036; stroke-width: 1.0;"/><path d="M371.9688,29.6406 Q371.3906,29.9375 370.75,30.0859 Q370.1094,30.2344 369.4063,30.2344 Q366.9063,30.2344 365.5859,28.5859 Q364.2656,26.9375 364.2656,23.8125 Q364.2656,20.6875 365.5859,19.0313 Q366.9063,17.375 369.4063,17.375 Q370.1094,17.375 370.7578,17.5313 Q371.4063,17.6875 371.9688,17.9844 L371.9688,20.7031 Q371.3438,20.125 370.75,19.8516 Q370.1563,19.5781 369.5313,19.5781 Q368.1875,19.5781 367.5,20.6484 Q366.8125,21.7188 366.8125,23.8125 Q366.8125,25.9063 367.5,26.9766 Q368.1875,28.0469 369.5313,28.0469 Q370.1563,28.0469 370.75,27.7734 Q371.3438,27.5 371.9688,26.9219 L371.9688,29.6406 Z "/><text fill="#000000" font-family="sans-serif" font-size="12" lengthAdjust="spacingAndGlyphs" textLength="49" x="383" y="28.1543">Class07</text><line style="stroke: #A80036; stroke-width: 1.5;" x1="355" x2="434" y1="40" y2="40"/><line style="stroke: #A80036; stroke-width: 1.5;" x1="355" x2="434" y1="48" y2="48"/><!--class Class08--><rect fill="#FEFECE" filter="url(#fvtcfi0)" height="48" style="stroke: #A80036; stroke-width: 1.5;" width="81" x="354" y="116"/><ellipse cx="369" cy="132" fill="#ADD1B2" rx="11" ry="11" style="stroke: #A80036; stroke-width: 1.0;"/><path d="M371.9688,137.6406 Q371.3906,137.9375 370.75,138.0859 Q370.1094,138.2344 369.4063,138.2344 Q366.9063,138.2344 365.5859,136.5859 Q364.2656,134.9375 364.2656,131.8125 Q364.2656,128.6875 365.5859,127.0313 Q366.9063,125.375 369.4063,125.375 Q370.1094,125.375 370.7578,125.5313 Q371.4063,125.6875 371.9688,125.9844 L371.9688,128.7031 Q371.3438,128.125 370.75,127.8516 Q370.1563,127.5781 369.5313,127.5781 Q368.1875,127.5781 367.5,128.6484 Q366.8125,129.7188 366.8125,131.8125 Q366.8125,133.9063 367.5,134.9766 Q368.1875,136.0469 369.5313,136.0469 Q370.1563,136.0469 370.75,135.7734 Q371.3438,135.5 371.9688,134.9219 L371.9688,137.6406 Z "/><text fill="#000000" font-family="sans-serif" font-size="12" lengthAdjust="spacingAndGlyphs" textLength="49" x="383" y="136.1543">Class08</text><line style="stroke: #A80036; stroke-width: 1.5;" x1="355" x2="434" y1="148" y2="148"/><line style="stroke: #A80036; stroke-width: 1.5;" x1="355" x2="434" y1="156" y2="156"/><!--class Class09--><rect fill="#FEFECE" filter="url(#fvtcfi0)" height="48" style="stroke: #A80036; stroke-width: 1.5;" width="81" x="470" y="8"/><ellipse cx="485" cy="24" fill="#ADD1B2" rx="11" ry="11" style="stroke: #A80036; stroke-width: 1.0;"/><path d="M487.9688,29.6406 Q487.3906,29.9375 486.75,30.0859 Q486.1094,30.2344 485.4063,30.2344 Q482.9063,30.2344 481.5859,28.5859 Q480.2656,26.9375 480.2656,23.8125 Q480.2656,20.6875 481.5859,19.0313 Q482.9063,17.375 485.4063,17.375 Q486.1094,17.375 486.7578,17.5313 Q487.4063,17.6875 487.9688,17.9844 L487.9688,20.7031 Q487.3438,20.125 486.75,19.8516 Q486.1563,19.5781 485.5313,19.5781 Q484.1875,19.5781 483.5,20.6484 Q482.8125,21.7188 482.8125,23.8125 Q482.8125,25.9063 483.5,26.9766 Q484.1875,28.0469 485.5313,28.0469 Q486.1563,28.0469 486.75,27.7734 Q487.3438,27.5 487.9688,26.9219 L487.9688,29.6406 Z "/><text fill="#000000" font-family="sans-serif" font-size="12" lengthAdjust="spacingAndGlyphs" textLength="49" x="499" y="28.1543">Class09</text><line style="stroke: #A80036; stroke-width: 1.5;" x1="471" x2="550" y1="40" y2="40"/><line style="stroke: #A80036; stroke-width: 1.5;" x1="471" x2="550" y1="48" y2="48"/><!--class Class10--><rect fill="#FEFECE" filter="url(#fvtcfi0)" height="48" style="stroke: #A80036; stroke-width: 1.5;" width="81" x="470" y="116"/><ellipse cx="485" cy="132" fill="#ADD1B2" rx="11" ry="11" style="stroke: #A80036; stroke-width: 1.0;"/><path d="M487.9688,137.6406 Q487.3906,137.9375 486.75,138.0859 Q486.1094,138.2344 485.4063,138.2344 Q482.9063,138.2344 481.5859,136.5859 Q480.2656,134.9375 480.2656,131.8125 Q480.2656,128.6875 481.5859,127.0313 Q482.9063,125.375 485.4063,125.375 Q486.1094,125.375 486.7578,125.5313 Q487.4063,125.6875 487.9688,125.9844 L487.9688,128.7031 Q487.3438,128.125 486.75,127.8516 Q486.1563,127.5781 485.5313,127.5781 Q484.1875,127.5781 483.5,128.6484 Q482.8125,129.7188 482.8125,131.8125 Q482.8125,133.9063 483.5,134.9766 Q484.1875,136.0469 485.5313,136.0469 Q486.1563,136.0469 486.75,135.7734 Q487.3438,135.5 487.9688,134.9219 L487.9688,137.6406 Z "/><text fill="#000000" font-family="sans-serif" font-size="12" lengthAdjust="spacingAndGlyphs" textLength="49" x="499" y="136.1543">Class10</text><line style="stroke: #A80036; stroke-width: 1.5;" x1="471" x2="550" y1="148" y2="148"/><line style="stroke: #A80036; stroke-width: 1.5;" x1="471" x2="550" y1="156" y2="156"/><path d="M46.25,76.0236 C46.25,89.5792 46.25,104.0381 46.25,115.6784 " fill="none" style="stroke: #A80036; stroke-width: 1.0;"/><polygon fill="none" points="39.2501,76.0005,46.25,56,53.2501,76.0004,39.2501,76.0005" style="stroke: #A80036; stroke-width: 1.0;"/><path d="M162.25,69.3383 C162.25,84.6813 162.25,102.098 162.25,115.6784 " fill="none" style="stroke: #A80036; stroke-width: 1.0;"/><polygon fill="#A80036" points="162.25,56,158.25,62,162.25,68,166.25,62,162.25,56" style="stroke: #A80036; stroke-width: 1.0;"/><path d="M278.25,69.3383 C278.25,84.6813 278.25,102.098 278.25,115.6784 " fill="none" style="stroke: #A80036; stroke-width: 1.0;"/><polygon fill="#FFFFFF" points="278.25,56,274.25,62,278.25,68,282.25,62,278.25,56" style="stroke: #A80036; stroke-width: 1.0;"/><path d="M394.25,56 C394.25,73.6584 394.25,97.9408 394.25,115.6784 " fill="none" style="stroke: #A80036; stroke-width: 1.0; stroke-dasharray: 7.0,7.0;"/><path d="M510.25,56 C510.25,73.6584 510.25,97.9408 510.25,115.6784 " fill="none" style="stroke: #A80036; stroke-width: 1.0;"/></g></svg>